<svg width="250" height="257" viewBox="0 0 250 257" fill="none" xmlns="http://www.w3.org/2000/svg">
<circle cx="125" cy="132" r="125" fill="#A512EA"/>
<path d="M187.54 206.94C187.54 210.16 180.333 211.77 165.92 211.77C151.507 211.77 143.687 210.62 142.46 208.32L104.05 136.56V208.09C104.05 210.85 96.92 212.23 82.66 212.23C68.5533 212.23 61.5 210.85 61.5 208.09V54.22C61.5 51.92 67.5567 50.77 79.67 50.77C84.4233 50.77 89.9433 51.23 96.23 52.15C102.67 52.9167 106.58 54.45 107.96 56.75L144.76 127.59V55.37C144.76 52.4567 151.89 51 166.15 51C180.41 51 187.54 52.4567 187.54 55.37V206.94Z" fill="#5DD6E7"/>
</svg>
