<?xml version="1.0" ?><svg fill="none" height="27" viewBox="0 0 20 27" width="20" xmlns="http://www.w3.org/2000/svg"><path d="M5 25.9H4.5C3 25.9 1.70001 24.705 1.70001 23.1117V4.68841C1.70001 3.19463 2.9 1.90002 4.5 1.90002H5C6.5 1.90002 7.79999 3.09505 7.79999 4.68841V23.1117C7.79999 24.705 6.5 25.9 5 25.9Z" stroke="#fff" stroke-linecap="round" stroke-miterlimit="10" stroke-width="2"/><path d="M15.5 25.9H15C13.5 25.9 12.2 24.705 12.2 23.1117V4.68841C12.2 3.19463 13.4 1.90002 15 1.90002H15.5C17 1.90002 18.3 3.09505 18.3 4.68841V23.1117C18.2 24.705 17 25.9 15.5 25.9Z" stroke="#fff" stroke-linecap="round" stroke-miterlimit="10" stroke-width="2"/></svg>